<svg xmlns="http://www.w3.org/2000/svg" viewBox="0 0 72 72" style="enable-background:new 0 0 72 72" xml:space="preserve"><path d="M54.9 67.7c-1.4 0-2.7-.6-3.6-1.6L35.9 49.8 26.3 60c-.7.8-1.6 1.3-2.6 1.4h-.2c-.2.1-.5.1-.8.1-2.5 0-4.5-1.8-4.9-4.3l-7.1-43.6V12.4c.3-1.5 1.5-2.5 3-2.5h.7l41.2 7.5c1 .2 1.9.7 2.6 1.4.9 1 1.4 2.2 1.4 3.6s-.5 2.8-1.5 3.7l-9.2 9.8c-.1.2-.1.3-.1.3s0 .1.1.1l15.4 16.3c1.9 2.1 1.9 5.3-.1 7.3L58.5 66a4.6 4.6 0 0 1-3.6 1.7z"/><path d="m14 12 41.2 7.5c.6.1 1.1.4 1.5.8.6.6.9 1.4.9 2.2s-.3 1.7-.9 2.2l-9.4 10c-.4.5-.6 1.1-.6 1.6s.2 1.1.6 1.5l15.4 16.3c1.2 1.3 1.2 3.3 0 4.5l-5.7 6c-.5.6-1.3 1-2.1 1s-1.6-.3-2.1-1L37.3 48.4c-.4-.4-.9-.6-1.4-.6-.5 0-1 .2-1.4.6l-9.7 10.3c-.4.4-.9.7-1.5.8-.2 0-.4.1-.6.1-1.4 0-2.7-1.1-2.9-2.5l-7.1-43.7v-.5c.1-.5.5-.8 1-.8.2-.1.2-.1.3-.1m0-4h-.2c-2.4 0-4.5 1.7-4.9 4.1 0 .2-.1.5-.1.7v.5c0 .2 0 .4.1.6L16 57.5c.5 3.4 3.4 5.9 6.8 5.9.5 0 .9-.1 1.2-.1h.1c1.4-.2 2.7-1 3.7-2l8.2-8.7 13.9 14.6c1.2 1.5 3.1 2.3 5.1 2.3 2 0 3.9-.8 5.1-2.3l5.5-5.9c2.7-2.7 2.7-7.2 0-10l-14.3-15 8.2-8.7c1.3-1.3 2.1-3.1 2.1-5.1 0-1.9-.7-3.6-2-5-1-1.1-2.3-1.8-3.7-2L14.7 8.1c-.3-.1-.5-.1-.7-.1z"/><path d="M49.9 62.7c-1.4 0-2.7-.6-3.6-1.6L30.9 44.8 21.3 55c-.7.8-1.6 1.3-2.6 1.4h-.2c-.2.1-.5.1-.8.1-2.5 0-4.5-1.8-4.9-4.3l-7-43.5V7.5C6.1 6 7.3 5 8.8 5H9.4l41.2 7.5c1 .2 1.9.7 2.6 1.4.9 1 1.4 2.2 1.4 3.6s-.5 2.8-1.5 3.7L43.9 31c-.1.2-.1.3-.1.3s0 .1.1.1l15.4 16.3c1.9 2.1 1.9 5.3-.1 7.3l-5.7 6a4.6 4.6 0 0 1-3.6 1.7z" style="fill:#ece1d8"/><path d="m9 7 41.2 7.5c.6.1 1.1.4 1.5.8.6.6.9 1.4.9 2.2s-.3 1.7-.9 2.2l-9.4 10c-.4.5-.6 1.1-.6 1.6s.2 1.1.6 1.5l15.4 16.3c1.2 1.3 1.2 3.3 0 4.5l-5.7 6c-.5.6-1.3 1-2.1 1s-1.6-.3-2.1-1L32.3 43.4c-.4-.4-.9-.6-1.4-.6-.5 0-1 .2-1.4.6l-9.7 10.3c-.4.4-.9.7-1.5.8-.2 0-.4.1-.6.1-1.4 0-2.7-1.1-2.9-2.5l-7-43.7v-.5c.1-.6.5-.9 1-.9H9m0-4h-.2c-2.5 0-4.5 1.7-5 4.1 0 .2-.1.5-.1.7v.5c0 .2 0 .4.1.6l7.1 43.6c.5 3.4 3.4 5.9 6.8 5.9.5 0 .9-.1 1.2-.1h.1c1.4-.2 2.7-1 3.7-2l8.2-8.7 13.9 14.6c1.2 1.5 3.1 2.3 5.1 2.3 2 0 3.9-.8 5.1-2.3l5.5-5.9c2.7-2.7 2.7-7.2 0-10l-14.2-15 8.2-8.7c1.3-1.3 2.1-3.1 2.1-5.1 0-1.9-.7-3.6-2-5-1-1.1-2.3-1.8-3.7-2L9.7 3.1C9.4 3 9.2 3 9 3z" style="fill:#020202"/></svg>