<svg version="1.1" id="圖層_1" xmlns="http://www.w3.org/2000/svg" x="0" y="0" viewBox="0 0 72 72" style="enable-background:new 0 0 72 72" xml:space="preserve"><style>.st0,.st3{fill:none;stroke:#000;stroke-width:4;stroke-linecap:round;stroke-linejoin:round;stroke-miterlimit:10}.st3{stroke:#020202}</style><path d="M38.4 68.5c-.6 0-1.2-.1-1.8-.2-4.8-1.3-10.8-6.3-14-9.2-.9-.8-8.6-8.2-10.1-13.7-1.2-3.8.2-6 1.6-7.8.4-.5 1.4-1.7 3-1.7 1.2 0 2 .7 2.7 1.3L8.6 17.8c-.8-1.5-1.1-3.2-.7-4.8.4-1.7 1.5-3 3-3.9l.3-.2c1-.6 2.1-.9 3.2-.9 2.3 0 4.3 1.2 5.5 3.2l4.5 7.7 2.4-1.4c1-.6 2.1-.9 3.2-.9 1.3 0 2.6.4 3.6 1.1.5-.9 1.3-1.6 2.2-2.1l.3-.2c1-.6 2.1-.9 3.2-.9 2 0 3.8.9 5 2.4.5-.5 1.1-.9 1.9-1.3l.3-.2c1-.6 2.1-.9 3.2-.9 2.2 0 4.3 1.1 5.6 3 0 .1.1.1.1.2L68 42.1c1 1.7 1.3 4 .9 6.3-.5 2.4-1.8 4.3-3.6 5.4L42 67.5c-1.1.6-2.3 1-3.6 1z"/><path d="M14.4 10.1c1.5 0 2.9.8 3.8 2.2l5.5 9.5 3.8-2.2.3-.2c.7-.4 1.4-.6 2.2-.6 1.5 0 2.9.8 3.8 2.2l1.5 2.5c-1.2-2.1-.5-4.7 1.6-6l.3-.2c.7-.4 1.4-.6 2.2-.6 1.5 0 2.9.8 3.8 2.2l1.9 3.2c-1.2-2.1.1-3.3 2.2-4.6l.3-.2c.7-.4 1.5-.6 2.2-.6 1.5 0 3 .8 4 2.2l12.6 24.4c1.6 2.8.9 7.3-2 9l-2.7 1.6-8 4.6-8 4.6-4.7 2.7c-.8.5-1.7.7-2.6.7-.4 0-.9-.1-1.3-.2-3.9-1-9.3-5.3-13.2-8.8 0 0-8.1-7.7-9.5-12.8-.9-2.9 0-4.4 1.2-6 .6-.7 1-.9 1.4-.9 1.2 0 2.2 2.4 4.9 3.2.8.2 2 .4 2.8.7L10.3 16.8c-1.2-2.1-.5-4.7 1.6-6l.3-.2c.7-.4 1.5-.5 2.2-.5m0-4c-1.5 0-2.9.4-4.2 1.1l-.3.2c-2 1.1-3.3 3-3.9 5.1-.6 2.1-.2 4.4.9 6.3L15.7 34c-1.1.3-2.2 1.1-3.1 2.2l-.1.1c-1.7 2.2-3.3 5-1.9 9.6 1.6 5.9 9.1 13.2 10.6 14.6 3.3 3 9.7 8.3 14.8 9.7.8.2 1.6.3 2.4.3 1.6 0 3.2-.4 4.6-1.2l4.7-2.7 8-4.6 8-4.6 2.7-1.6c4.6-2.7 6.2-9.5 3.5-14.4L57.2 17c-.1-.1-.2-.3-.3-.4-1.7-2.4-4.4-3.9-7.3-3.9-1.5 0-2.9.4-4.2 1.1l-.2.2c-.2.1-.5.3-.7.4-1.5-1.1-3.3-1.8-5.2-1.8-1.5 0-2.9.4-4.2 1.1l-.3.3c-.6.4-1.2.8-1.7 1.3-1-.4-2-.6-3.1-.6-1.5 0-2.9.4-4.2 1.1l-.4.2-.3.2-3.5-6c-1.4-2.6-4.2-4.1-7.2-4.1z"/><path class="st0" d="m25.1 20.1 7.1 12.3M34.8 18.8l4.8 8.2M44.3 17l3.9 6.7"/><path d="M33.4 63.5c-.6 0-1.2-.1-1.8-.2-4.8-1.3-10.8-6.3-14-9.2-1-.9-8.6-8.3-10.1-13.8-1.2-3.8.2-6 1.6-7.8.4-.5 1.4-1.7 3-1.7 1.2 0 2 .7 2.7 1.3L3.6 12.8c-.9-1.5-1.1-3.2-.7-4.8.4-1.7 1.5-3 3-3.9l.3-.2c1-.6 2.1-.9 3.2-.9 2.3 0 4.3 1.2 5.5 3.2l4.5 7.7 2.4-1.4c1-.6 2.1-.9 3.2-.9 1.3 0 2.6.4 3.6 1.1.5-.9 1.3-1.6 2.2-2.1l.3-.2c1-.6 2.1-.9 3.2-.9 2 0 3.8.9 5 2.4.5-.5 1.1-.9 1.9-1.3l.3-.2c1-.6 2.1-.9 3.2-.9 2.2 0 4.3 1.1 5.6 3 0 .1.1.1.1.2L63 37.1c1 1.7 1.3 4 .9 6.3-.5 2.4-1.8 4.3-3.6 5.4L37 62.5c-1.1.6-2.3 1-3.6 1z" style="fill:#ece1d8"/><path d="M9.4 5.1c1.5 0 2.9.8 3.8 2.2l5.5 9.5 3.8-2.2.3-.2c.7-.4 1.4-.6 2.2-.6 1.5 0 2.9.8 3.8 2.2l1.5 2.5c-1.2-2.1-.5-4.7 1.6-6l.3-.2c.7-.4 1.4-.6 2.2-.6 1.5 0 2.9.8 3.8 2.2l1.9 3.2c-1.2-2.1.1-3.3 2.2-4.6l.3-.2c.7-.4 1.5-.6 2.2-.6 1.5 0 3 .8 4 2.2l12.6 24.4c1.6 2.8.9 7.3-2 9l-2.7 1.6-8 4.6-8 4.6-4.7 2.7c-.8.5-1.7.7-2.6.7-.4 0-.9-.1-1.3-.2-3.9-1-9.3-5.3-13.2-8.8 0 0-8.1-7.7-9.5-12.8-.9-2.9 0-4.4 1.2-6 .6-.7 1-.9 1.4-.9 1.2 0 2.2 2.4 4.9 3.2.8.2 2 .4 2.8.7L5.3 11.8c-1.2-2.1-.5-4.7 1.6-6l.3-.2c.7-.4 1.5-.5 2.2-.5m0-4c-1.4 0-2.9.3-4.2 1.1l-.3.2c-2 1.1-3.3 3-3.9 5.1-.6 2.1-.2 4.4.9 6.3L10.7 29c-1.1.3-2.2 1.1-3.1 2.2l-.1.1c-1.7 2.2-3.3 5-1.9 9.6 1.6 5.9 9.1 13.2 10.6 14.6 3.3 3 9.7 8.3 14.8 9.7.8.2 1.6.3 2.4.3 1.6 0 3.2-.4 4.6-1.2l4.7-2.7 8-4.6 8-4.6 2.7-1.6c4.6-2.7 6.2-9.5 3.5-14.4L52.2 12c-.1-.1-.2-.3-.3-.4-1.7-2.4-4.4-3.9-7.3-3.9-1.5 0-2.9.4-4.2 1.1l-.2.2c-.2.1-.5.3-.7.4-1.5-1.1-3.3-1.8-5.2-1.8-1.5 0-2.9.4-4.2 1.1l-.3.3c-.6.4-1.2.8-1.7 1.3-1-.4-2-.6-3.1-.6-1.5 0-2.9.4-4.2 1.1l-.4.2-.3.2-3.5-6c-1.4-2.6-4.2-4.1-7.2-4.1z" style="fill:#020202"/><path class="st3" d="m20.1 15.1 7.1 12.3M29.8 13.8l4.8 8.2M39.3 12l3.9 6.7"/></svg>